<svg height="511pt" viewBox="1 -32 511.99896 511" width="511pt" xmlns="http://www.w3.org/2000/svg"><path d="m349.1875 417.464844-93.1875 14.59375-93.1875-14.59375 28.558594-54.203125 69.371094-31.398438 59.886718 31.398438zm0 0" fill="#353a59"/><path d="m470.898438 363.261719h-429.796876c-22.699218 0-41.101562-18.402344-41.101562-41.101563v-280.5625c0-22.699218 18.402344-41.097656 41.101562-41.097656h429.796876c22.699218 0 41.101562 18.402344 41.101562 41.097656v280.5625c0 22.699219-18.402344 41.101563-41.101562 41.101563zm0 0" fill="#4c5072"/><path d="m364.347656 446.652344h-216.695312c-8.0625 0-14.59375-6.535156-14.59375-14.59375 0-8.0625 6.53125-14.59375 14.59375-14.59375h216.695312c8.0625 0 14.59375 6.53125 14.59375 14.59375 0 8.058594-6.53125 14.59375-14.59375 14.59375zm0 0" fill="#4c5072"/><path d="m485.828125 63.425781v201.359375c0 18.496094-14.996094 33.492188-33.488281 33.492188h-392.675782c-18.503906 0-33.496093-14.996094-33.496093-33.492188v-201.359375c0-18.507812 14.992187-33.5 33.496093-33.5h392.675782c18.492187 0 33.488281 14.992188 33.488281 33.5zm0 0" fill="#b4d2d7"/><path d="m485.828125 63.425781v201.359375c0 18.496094-14.996094 33.492188-33.488281 33.492188h-196.335938v-268.351563h196.335938c18.492187 0 33.488281 14.992188 33.488281 33.5zm0 0" fill="#95dae8"/><path d="m256.003906 29.925781v72.945313h-229.835937v-39.445313c0-18.507812 14.992187-33.5 33.496093-33.5zm0 0" fill="#fff"/><path d="m452.335938 306.113281h-392.671876c-22.792968 0-41.332031-18.542969-41.332031-41.332031v-201.359375c0-22.789063 18.539063-41.332031 41.332031-41.332031h392.671876c22.792968 0 41.332031 18.542968 41.332031 41.332031v201.359375c0 22.789062-18.539063 41.332031-41.332031 41.332031zm-392.671876-268.347656c-14.148437 0-25.660156 11.507813-25.660156 25.65625v201.359375c0 14.148438 11.511719 25.660156 25.660156 25.660156h392.671876c14.148437 0 25.660156-11.511718 25.660156-25.660156v-201.359375c0-14.148437-11.511719-25.65625-25.660156-25.65625zm0 0" fill="#353a59"/><path d="m79.125 66.992188c0 7.292968-5.910156 13.207031-13.203125 13.207031s-13.207031-5.914063-13.207031-13.207031c0-7.292969 5.914062-13.203126 13.207031-13.203126s13.203125 5.910157 13.203125 13.203126zm0 0" fill="#f9d35a"/><path d="m129.398438 66.992188c0 7.292968-5.910157 13.207031-13.203126 13.207031-7.292968 0-13.207031-5.914063-13.207031-13.207031 0-7.292969 5.914063-13.203126 13.207031-13.203126 7.292969 0 13.203126 5.910157 13.203126 13.203126zm0 0" fill="#95dae8"/><path d="m179.671875 66.992188c0 7.292968-5.910156 13.207031-13.203125 13.207031s-13.207031-5.914063-13.207031-13.207031c0-7.292969 5.914062-13.203126 13.207031-13.203126s13.203125 5.910157 13.203125 13.203126zm0 0" fill="#ff435e"/><g fill="#353a59"><path d="m225.996094 157.453125h-168.484375c-4.328125 0-7.835938-3.511719-7.835938-7.839844s3.507813-7.835937 7.835938-7.835937h168.484375c4.328125 0 7.835937 3.507812 7.835937 7.835937s-3.507812 7.839844-7.835937 7.839844zm0 0"/><path d="m225.996094 191.671875h-168.484375c-4.328125 0-7.835938-3.507813-7.835938-7.835937 0-4.328126 3.507813-7.835938 7.835938-7.835938h168.484375c4.328125 0 7.835937 3.507812 7.835937 7.835938 0 4.328124-3.507812 7.835937-7.835937 7.835937zm0 0"/><path d="m187.480469 225.890625h-129.96875c-4.328125 0-7.835938-3.507813-7.835938-7.835937 0-4.328126 3.507813-7.835938 7.835938-7.835938h129.96875c4.328125 0 7.835937 3.507812 7.835937 7.835938 0 4.328124-3.507812 7.835937-7.835937 7.835937zm0 0"/><path d="m322.726562 210.867188c-2.003906 0-4.007812-.765626-5.539062-2.296876l-37.347656-37.347656c-1.46875-1.46875-2.296875-3.460937-2.296875-5.539062s.828125-4.074219 2.296875-5.542969l37.347656-37.347656c3.0625-3.058594 8.023438-3.058594 11.082031 0 3.058594 3.0625 3.058594 8.023437 0 11.082031l-31.804687 31.804688 31.804687 31.804687c3.058594 3.0625 3.058594 8.023437 0 11.082031-1.53125 1.535156-3.535156 2.300782-5.542969 2.300782zm0 0"/><path d="m403.59375 210.867188c-2.003906 0-4.011719-.765626-5.539062-2.296876-3.0625-3.0625-3.0625-8.023437 0-11.082031l31.804687-31.804687-31.804687-31.804688c-3.0625-3.0625-3.0625-8.023437 0-11.082031 3.058593-3.058594 8.019531-3.0625 11.082031 0l37.347656 37.347656c1.46875 1.46875 2.292969 3.460938 2.292969 5.539063s-.824219 4.074218-2.292969 5.542968l-37.347656 37.34375c-1.53125 1.53125-3.535157 2.296876-5.542969 2.296876zm0 0"/><path d="m348.3125 232.589844c-.625 0-1.253906-.074219-1.886719-.230469-4.203125-1.039063-6.765625-5.285156-5.726562-9.488281l29.1875-118.140625c1.039062-4.199219 5.285156-6.765625 9.488281-5.726563 4.199219 1.039063 6.765625 5.285156 5.726562 9.488282l-29.1875 118.140624c-.882812 3.570313-4.082031 5.957032-7.601562 5.957032zm0 0"/><path d="m60.15625 363.261719h-19.058594c-22.695312 0-41.097656-18.402344-41.097656-41.097657v-280.566406c0-22.691406 18.402344-41.09375 41.097656-41.09375h18.566406c-22.464843.261719-40.605468 18.566406-40.605468 41.09375v280.566406c0 22.695313 18.402344 41.097657 41.097656 41.097657zm0 0"/><path d="m188.511719 446.644531h-40.855469c-8.058594 0-14.597656-6.53125-14.597656-14.585937 0-4.03125 1.640625-7.679688 4.273437-10.324219 2.640625-2.640625 6.289063-4.273437 10.324219-4.273437h40.855469c-4.035157 0-7.683594 1.632812-10.324219 4.273437-2.644531 2.644531-4.273438 6.292969-4.273438 10.324219 0 8.054687 6.53125 14.585937 14.597657 14.585937zm0 0"/></g></svg>