<svg height='100px' width='100px'  fill="#000000" xmlns:dc="http://purl.org/dc/elements/1.1/" xmlns:cc="http://creativecommons.org/ns#" xmlns:rdf="http://www.w3.org/1999/02/22-rdf-syntax-ns#" xmlns:svg="http://www.w3.org/2000/svg" xmlns="http://www.w3.org/2000/svg" xmlns:sodipodi="http://sodipodi.sourceforge.net/DTD/sodipodi-0.dtd" xmlns:inkscape="http://www.inkscape.org/namespaces/inkscape" version="1.1" x="0px" y="0px" viewBox="0 0 100 100"><g transform="translate(0,-952.36218)"><path style="font-size:medium;font-style:normal;font-variant:normal;font-weight:normal;font-stretch:normal;text-indent:0;text-align:start;text-decoration:none;line-height:normal;letter-spacing:normal;word-spacing:normal;text-transform:none;direction:ltr;block-progression:tb;writing-mode:lr-tb;text-anchor:start;baseline-shift:baseline;opacity:1;color:#000000;fill:#000000;fill-opacity:1;stroke:none;stroke-width:6;marker:none;visibility:visible;display:inline;overflow:visible;enable-background:accumulate;font-family:Sans;-inkscape-font-specification:Sans" d="M 18 13 C 14.218843 13 11 16.2557 11 20 L 11 60.3125 L 4.28125 74.71875 A 3.0003 3.0003 0 0 0 4 76 L 4 80 C 4 81.9889 4.8667338 84.0607 6.4375 85.3125 C 8.0082662 86.5643 9.9571213 87 12 87 L 88 87 C 90.04298 87 91.991728 86.5643 93.5625 85.3125 C 95.133272 84.0607 96 81.9888 96 80 L 96 76 A 3.0003 3.0003 0 0 0 95.6875 74.71875 L 95.71875 74.71875 L 89 60.3125 L 89 20 C 89 16.2557 85.781157 13 82 13 L 18 13 z M 18 19 L 82 19 C 82.911543 19 83 19.11086 83 20 L 83 59 L 17 59 L 17 20 C 17 19.11086 17.08846 19 18 19 z M 55.09375 21.9375 A 3.0003 3.0003 0 0 0 52.1875 23.96875 L 42.1875 51.96875 A 3.0003 3.0003 0 1 0 47.8125 54 L 57.8125 26 A 3.0003 3.0003 0 0 0 55.09375 21.9375 z M 37.875 26.96875 A 3.0003 3.0003 0 0 0 36.53125 27.375 L 20.53125 36.375 A 3.0003 3.0003 0 0 0 20.53125 41.59375 L 36.53125 50.59375 A 3.0003 3.0003 0 1 0 39.46875 45.375 L 28.09375 39 L 39.46875 32.59375 A 3.0003 3.0003 0 0 0 37.875 26.96875 z M 61.75 26.96875 A 3.0003 3.0003 0 0 0 60.53125 32.59375 L 71.90625 39 L 60.53125 45.375 A 3.0003 3.0003 0 1 0 63.46875 50.59375 L 79.46875 41.59375 A 3.0003 3.0003 0 0 0 79.46875 36.375 L 63.46875 27.375 A 3.0003 3.0003 0 0 0 61.75 26.96875 z M 15.4375 65 L 84.5625 65 L 88.3125 73 L 11.6875 73 L 15.4375 65 z M 10 79 L 90 79 L 90 80 C 90 80.5881 89.97418 80.48975 89.84375 80.59375 C 89.713317 80.69765 89.1522 81 88 81 L 12 81 C 10.847979 81 10.286759 80.69775 10.15625 80.59375 C 10.025741 80.48965 10 80.588 10 80 L 10 79 z " transform="translate(0,952.36218)"></path></g></svg>